<svg xmlns="http://www.w3.org/2000/svg" width="64" height="64" viewBox="0 0 64 64"><g transform="translate(23.273)"><path d="M224,0H200.729a2.909,2.909,0,0,0,0,5.818h16.25L187.036,35.761a2.909,2.909,0,1,0,4.114,4.114L221.093,9.932v16.25a2.909,2.909,0,1,0,5.818,0V2.909A2.909,2.909,0,0,0,224,0Z" transform="translate(-186.184)" fill="#fff"/></g><g transform="translate(0 11.636)"><path d="M49.454,110.546a2.909,2.909,0,0,0-2.909,2.909v26.182H5.818V98.909H32a2.909,2.909,0,1,0,0-5.818H2.909A2.909,2.909,0,0,0,0,96v46.546a2.909,2.909,0,0,0,2.909,2.909H49.455a2.909,2.909,0,0,0,2.909-2.909V113.455A2.909,2.909,0,0,0,49.454,110.546Z" transform="translate(0 -93.091)" fill="#fff"/></g></svg>