<svg xmlns="http://www.w3.org/2000/svg" width="48" height="64" viewBox="0 0 48 64"><g transform="translate(-3)"><path d="M45,49H9a6.007,6.007,0,0,1-6-6V15A6.007,6.007,0,0,1,9,9H45a6.007,6.007,0,0,1,6,6V43A6.007,6.007,0,0,1,45,49ZM9,13a2,2,0,0,0-2,2V43a2,2,0,0,0,2,2H45a2,2,0,0,0,2-2V15a2,2,0,0,0-2-2Z" transform="translate(0 15)" fill="#fff"/><path d="M36,28a2,2,0,0,1-2-2V16a12,12,0,0,0-24,0V26a2,2,0,0,1-4,0V16a16,16,0,0,1,32,0V26A2,2,0,0,1,36,28Z" transform="translate(5)" fill="#fff"/><path d="M15.333,23.667a5.333,5.333,0,1,1,5.333-5.333A5.339,5.339,0,0,1,15.333,23.667Zm0-6.667a1.333,1.333,0,1,0,1.333,1.333A1.336,1.336,0,0,0,15.333,17Z" transform="translate(11.667 21.667)" fill="#fff"/><path d="M13.25,27.083a2,2,0,0,1-2-2V17.75a2,2,0,0,1,4,0v7.333A2,2,0,0,1,13.25,27.083Z" transform="translate(13.75 26.25)" fill="#fff"/></g></svg>