<svg xmlns="http://www.w3.org/2000/svg" xmlns:xlink="http://www.w3.org/1999/xlink" width="1920" height="1080" viewBox="0 0 1920 1080"><defs><linearGradient id="a" x1="0.509" y1="0.883" x2="0.546" y2="0.268" gradientUnits="objectBoundingBox"><stop offset="0" stop-color="#fff"/><stop offset="1" stop-color="#f6f6f6" stop-opacity="0.788"/></linearGradient><linearGradient id="b" x1="0.415" y1="1.117" x2="1.195" y2="-0.207" gradientUnits="objectBoundingBox"><stop offset="0" stop-color="#fff"/><stop offset="0.785" stop-color="#f1f1f1"/><stop offset="0.925" stop-color="#fcfcfc"/><stop offset="1" stop-color="#ededed"/></linearGradient><linearGradient id="c" x1="0.509" y1="0.883" x2="0.546" y2="0.268" gradientUnits="objectBoundingBox"><stop offset="0" stop-color="#fff"/><stop offset="1" stop-color="#f6f6f6"/></linearGradient><linearGradient id="d" x1="0.172" y1="0.569" x2="1.102" y2="-0.032" gradientUnits="objectBoundingBox"><stop offset="0" stop-color="#fff"/><stop offset="1" stop-color="#e9e9e9"/></linearGradient><linearGradient id="e" x1="0.492" y1="0.9" x2="0.48" y2="0.138" gradientUnits="objectBoundingBox"><stop offset="0" stop-color="#fff"/><stop offset="1" stop-color="#e8e8e8"/></linearGradient><linearGradient id="f" x1="0.5" x2="0.5" y2="1" gradientUnits="objectBoundingBox"><stop offset="0" stop-color="#fff" stop-opacity="0"/><stop offset="1" stop-color="#fff"/></linearGradient><linearGradient id="g" x1="0.585" y1="0.001" x2="0.867" y2="0.423" gradientUnits="objectBoundingBox"><stop offset="0" stop-color="#fff"/><stop offset="1" stop-color="#f9f9f9"/></linearGradient><clipPath id="i"><rect width="1920" height="1080"/></clipPath></defs><g id="h" clip-path="url(#i)"><rect width="1920" height="1080" fill="#fff"/><path d="M971.727,329.071c175.35,36.072,539.57,28.826,625.259,60.58,552.593-201.077-420.141,311.283-683.176,311.283-313.51,0-931.788-393.42-809.439-549.749S-117.4,105.017,971.727,329.071Z" transform="translate(206.868 -292.331) rotate(45)" opacity="0.67" fill="url(#a)"/><path d="M0,43.305s696.635-116.728,1006.063,33.1,323.362,268.442,231.642,566.221S784.024,1323.3,639.2,1267.523s179.025-541.949,19.222-848S0,43.305,0,43.305Z" transform="translate(2322.162 415.984) rotate(120)" fill="url(#b)"/><path d="M971.727,329.071c1089.129,224.05,255.593,371.864-57.917,371.864S-108.3,210.937,14.045,54.609-117.4,105.017,971.727,329.071Z" transform="translate(28.868 -280.411) rotate(45)" fill="url(#c)"/><path d="M.1,177.307S710.637,42.487,710.637,200.254c0,52.378,214.513,279.618,163.6,392.494C771.184,821.23,301.566,1534.969,199.285,1496.306S514.907,767.844,465.112,438.092.1,177.307.1,177.307Z" transform="translate(1244.171 -186.309)" fill="url(#d)"/><path d="M957.682,274.462c471.048,63.6,926.509-20.052,926.509-20.052s-670.918,391.92-984.43,391.92S0,0,0,0,486.634,210.86,957.682,274.462Z" transform="translate(-146.335 -40.97) rotate(45)" fill="url(#e)"/><rect width="1920" height="250" transform="translate(0 830)" opacity="0.58" fill="url(#f)"/><path d="M.1,191.981S410.539,71.514,592.845,226.144,835.969,328.1,729.324,810.5,251.589,2213.313,166.264,2155.75s263.3-1084.558,221.759-1575.5S.1,191.981.1,191.981Z" transform="matrix(-0.259, 0.966, -0.966, -0.259, 2243.965, -244.638)" fill="url(#g)"/></g></svg>