<svg xmlns="http://www.w3.org/2000/svg" width="58.667" height="64" viewBox="0 0 58.667 64"><path d="M24.333,43.667A11.348,11.348,0,0,1,13,32.333V5H8.333A7.339,7.339,0,0,0,1,12.333v36a7.339,7.339,0,0,0,7.333,7.333H41.667A7.339,7.339,0,0,0,49,48.333V43.667Z" transform="translate(-1 8.333)" fill="#2d2d2d"/><path d="M49.667,7.333A7.333,7.333,0,0,0,42.333,0h-28A7.333,7.333,0,0,0,7,7.333V40.667A7.333,7.333,0,0,0,14.333,48h28a7.333,7.333,0,0,0,7.333-7.333Z" transform="translate(9)" fill="#2d2d2d"/></svg>